HIERARCHY
ROOT Hips
{
	OFFSET 0.00000 0.00000 0.00000
	CHANNELS 6 Xposition Yposition Zposition Zrotation Yrotation Xrotation 
	JOINT LHipJoint
	{
		OFFSET 0 0 0
		CHANNELS 3 Zrotation Yrotation Xrotation
		JOINT LeftHip
		{
			OFFSET 1.62964 -1.40469 0.78906
			CHANNELS 3 Zrotation Yrotation Xrotation
			JOINT LeftKnee
			{
				OFFSET 2.29640 -6.30932 0.00000
				CHANNELS 3 Zrotation Yrotation Xrotation
				JOINT LeftAnkle
				{
					OFFSET 2.29451 -6.30412 0.00000
					CHANNELS 3 Zrotation Yrotation Xrotation
					JOINT LeftToe
					{
						OFFSET 0.03611 -0.09921 1.56387
						CHANNELS 3 Zrotation Yrotation Xrotation
						End Site
						{
							OFFSET 0.00000 -0.00000 0.80291
						}
					}
				}
			}
		}
	}
	JOINT RHipJoint
	{
		OFFSET 0 0 0
		CHANNELS 3 Zrotation Yrotation Xrotation
		JOINT RightHip
		{
			OFFSET -1.73712 -1.40469 0.78906
			CHANNELS 3 Zrotation Yrotation Xrotation
			JOINT RightKnee
			{
				OFFSET -2.28137 -6.26801 0.00000
				CHANNELS 3 Zrotation Yrotation Xrotation
				JOINT RightAnkle
				{
					OFFSET -2.28681 -6.28298 0.00000
					CHANNELS 3 Zrotation Yrotation Xrotation
					JOINT RightToe
					{
						OFFSET -0.15927 -0.43759 1.61103
						CHANNELS 3 Zrotation Yrotation Xrotation
						End Site
						{
							OFFSET -0.00000 -0.00000 0.84630
						}
					}
				}
			}
		}
	}
	JOINT lowerback
	{
		OFFSET 0 0 0
		CHANNELS 3 Zrotation Yrotation Xrotation
		JOINT Chest
		{
			OFFSET -0.04227 2.04338 -0.00225
			CHANNELS 3 Zrotation Yrotation Xrotation
			JOINT Chest2
			{
				OFFSET -0.02148 2.04482 -0.04273
				CHANNELS 3 Zrotation Yrotation Xrotation
				JOINT lowerneck
				{
					OFFSET 0 0 0
					CHANNELS 3 Zrotation Yrotation Xrotation
					JOINT Neck
					{
						OFFSET 0.09180 1.44629 0.19359
						CHANNELS 3 Zrotation Yrotation Xrotation
						JOINT Head
						{
							OFFSET 0.00887 1.40645 0.14750
							CHANNELS 3 Zrotation Yrotation Xrotation
							End Site
							{
								OFFSET -0.00669 1.50671 0.03707
							}
						}
					}
				}
				JOINT LeftCollar
				{
					OFFSET 0 0 0
					CHANNELS 3 Zrotation Yrotation Xrotation
					JOINT LeftShoulder
					{
						OFFSET 2.17674 1.86763 -0.06520
CHANNELS 3 Zrotation Xrotation Yrotation
						JOINT LeftElbow
						{
OFFSET 0 -4.657760 0.000000
CHANNELS 3 Zrotation Xrotation Yrotation
							JOINT LeftWrist
							{
OFFSET 0 -3.555390 0.000000
CHANNELS 3 Zrotation Xrotation Yrotation
								JOINT lhand
								{
									OFFSET 0 0 0
CHANNELS 3 Zrotation Xrotation Yrotation
									JOINT LFingers
									{
OFFSET 0 -0.707260 0.000000
CHANNELS 3 Zrotation Xrotation Yrotation
										End Site
										{
OFFSET 0 -0.570220 0.000000
										}
									}
								}
								JOINT LThumb
								{
OFFSET 0 0.000000 0.000000
CHANNELS 3 Zrotation Xrotation Yrotation
									End Site
									{
OFFSET 0 -0.578920 0.578920
									}
								}
							}
						}
					}
				}
				JOINT RightCollar
				{
					OFFSET 0 0 0
					CHANNELS 3 Zrotation Yrotation Xrotation
					JOINT RightShoulder
					{
						OFFSET -2.80694 1.55459 -0.32496
CHANNELS 3 Zrotation Xrotation Yrotation
						JOINT RightElbow
						{
OFFSET 0 -4.719250 -0.000000
CHANNELS 3 Zrotation Xrotation Yrotation
							JOINT RightWrist
							{
OFFSET 0 -3.569900 0.000000
CHANNELS 3 Zrotation Xrotation Yrotation
								JOINT rhand
								{
									OFFSET 0 0 0
CHANNELS 3 Zrotation Xrotation Yrotation
									JOINT RFingers
									{
OFFSET 0 -0.507760 0.000000
CHANNELS 3 Zrotation Xrotation Yrotation
										End Site
										{
OFFSET 0 -0.409370 0.000000
										}
									}
								}
								JOINT RThumb
								{
OFFSET 0 0.000000 0.000000
CHANNELS 3 Zrotation Xrotation Yrotation
									End Site
									{
OFFSET 0 -0.415620 0.415620
									}
								}
							}
						}
					}
				}
			}
		}
	}
}
MOTION
Frames: 6
Frame Time: 0.008333333333333333
9.145100 16.317600 17.795100 179.978000 -2.686100 -153.674000 0.000000 0.000000 0.000000 -17.635700 -16.050400 -19.691200 0.164400 2.612100 7.200600 0.231200 1.117700 -9.560600 4.636900 -12.962800 -39.229500 0.000000 0.000000 0.000000 15.932000 17.113300 -20.078100 -0.175100 -2.695300 7.431400 -1.062900 0.632200 -19.291300 -3.298900 11.163800 -32.834300 -5.827800 -1.886200 -29.997600 -0.122200 -1.509400 -2.952500 2.360100 -1.384900 12.534900 -3.025100 -3.175100 1.976800 7.280900 -4.290200 -11.676700 3.190000 -2.557000 -3.964900 -0.000000 0.000000 0.000000 4.392400 -3.104700 -16.770800 7.836800 -13.287900 0.914200 23.306300 0.097300 11.930200 0.000000 0.000000 0.000000 -7.125000 0.000000 0.000000 -2.706700 17.033100 -1.797200 -0.000000 0.000000 0.000000 2.027000 1.789900 7.338800 -13.072600 -21.393400 -2.479700 -17.659400 18.794600 51.318500 0.000000 0.000000 0.000000 7.125000 0.000000 -0.000000 57.300700 77.365200 -45.865400
9.143501 16.319003 17.796108 179.974907 -2.710088 -153.639047 0.000000 0.000000 0.000000 -17.666033 -15.984826 -19.724537 0.161210 2.586877 7.130513 0.218801 1.229404 -9.372030 5.005150 -13.389580 -40.844977 0.000000 0.000000 0.000000 15.859677 17.324232 -20.122443 -0.182102 -2.748711 7.579932 -1.072508 0.615405 -19.384607 -3.070612 10.808477 -31.636693 -5.824441 -1.859508 -30.035050 -0.169486 -1.462435 -2.921694 2.324217 -1.362529 12.580878 -2.850226 -3.255487 1.890644 7.337975 -4.397605 -11.779592 3.182251 -2.627950 -3.980233 0.000000 0.000000 0.000000 4.148411 -3.662686 -13.832156 7.567689 -12.849702 0.853366 18.380193 4.217068 11.765717 0.000000 0.000000 0.000000 -7.125000 0.000000 0.000000 -6.140801 17.643502 -4.013900 0.000000 0.000000 0.000000 2.156634 1.720422 7.308056 -13.114469 -21.454754 -2.494989 -17.628845 18.981729 52.098553 0.000000 0.000000 0.000000 7.125000 0.000000 0.000000 60.645944 77.648247 -49.129468
9.143903 16.319791 17.798423 179.947214 -2.676397 -153.652459 0.000000 0.000000 0.000000 -17.705461 -15.992621 -19.736718 0.164131 2.610045 7.194780 0.219153 1.289851 -9.411571 5.079584 -13.472858 -41.165468 0.000000 0.000000 0.000000 15.823072 17.303491 -20.136541 -0.182623 -2.752274 7.589885 -1.074822 0.677455 -19.386773 -3.104329 10.861975 -31.815867 -5.866527 -1.801479 -30.020909 -0.225411 -1.352631 -2.859779 2.329233 -1.311059 12.634703 -2.707969 -3.341739 1.753409 7.360732 -4.519156 -11.897372 3.167595 -2.703169 -3.990109 0.000000 0.000000 0.000000 3.970029 -4.171730 -11.245540 7.382817 -12.547624 0.812773 13.145527 8.081024 11.439464 0.000000 0.000000 0.000000 -7.125000 0.000000 0.000000 -9.800331 18.336324 -6.312976 0.000000 0.000000 0.000000 2.257097 1.576426 7.053596 -13.104936 -21.440714 -2.491504 -17.701770 19.020702 52.053995 0.000000 0.000000 0.000000 7.125000 0.000000 0.000000 60.417776 77.661991 -48.938224
9.144267 16.318478 17.801799 179.979942 -2.629853 -153.571249 0.000000 0.000000 0.000000 -17.654267 -15.981044 -19.888647 0.168786 2.646390 7.295695 0.227149 1.239209 -9.542833 5.047761 -13.437302 -41.028449 0.000000 0.000000 0.000000 15.834503 17.256324 -20.323631 -0.186156 -2.778615 7.663151 -1.078022 0.792405 -19.381323 -3.168763 10.963428 -32.156569 -5.869804 -1.707578 -30.128101 -0.272198 -1.206451 -2.796267 2.333830 -1.244541 12.740814 -2.597538 -3.422643 1.604441 7.410503 -4.632649 -11.998457 3.166754 -2.773692 -3.991436 0.000000 0.000000 0.000000 3.588225 -5.027988 -5.858250 7.011508 -11.938182 0.734013 2.962304 15.921661 10.989324 0.000000 0.000000 0.000000 -7.125000 0.000000 0.000000 -16.868956 19.201085 -10.860636 0.000000 0.000000 0.000000 2.362046 1.369751 6.662594 -13.065282 -21.382835 -2.477084 -17.667452 19.111673 51.964737 0.000000 0.000000 0.000000 7.125000 0.000000 0.000000 60.045528 77.616343 -48.558142
9.141013 16.316288 17.801781 180.073120 -2.476503 -153.495290 0.000000 0.000000 0.000000 -17.571199 -16.005371 -19.945855 0.167452 2.635915 7.266751 0.231975 1.368314 -9.703552 5.083576 -13.477196 -41.182257 0.000000 0.000000 0.000000 15.903858 17.128648 -20.577779 -0.191768 -2.820093 7.778269 -1.070028 1.051491 -19.232335 -3.234934 11.065972 -32.502696 -5.804319 -1.555458 -30.298344 -0.332067 -0.999916 -2.711959 2.309565 -1.148145 12.893206 -2.426323 -3.498610 1.444919 7.448525 -4.739929 -12.104465 3.150366 -2.844265 -3.994458 0.000000 0.000000 0.000000 3.649559 -5.399736 -5.110921 6.815367 -11.614863 0.694048 3.437671 17.217089 11.158100 0.000000 0.000000 0.000000 -7.125000 0.000000 0.000000 -16.527682 19.017342 -10.690543 0.000000 0.000000 0.000000 2.488112 1.142811 6.286302 -13.034234 -21.337389 -2.465722 -17.665180 19.261244 52.039923 0.000000 0.000000 0.000000 7.125000 0.000000 0.000000 60.373671 77.642208 -48.878689
9.142035 16.315390 17.807842 180.082184 -2.439224 -153.367998 0.000000 0.000000 0.000000 -17.518675 -16.017574 -20.180798 0.171328 2.666810 7.352386 0.229993 1.348452 -9.654294 5.097425 -13.492613 -41.241731 0.000000 0.000000 0.000000 15.893438 17.013431 -20.873548 -0.196808 -2.856568 7.879592 -1.049740 1.169935 -19.011552 -3.282588 11.138997 -32.750268 -6.050640 -1.426685 -30.457593 -0.388353 -0.705052 -2.568466 2.492884 -1.025741 13.100996 -1.910005 -3.684361 1.038835 7.317664 -5.008508 -12.220080 3.007396 -3.004521 -3.954151 0.000000 0.000000 0.000000 3.617336 -4.471941 -11.607303 6.141276 -10.497558 0.564705 22.467927 19.732651 12.500129 0.000000 0.000000 0.000000 -7.125000 0.000000 0.000000 -3.315844 16.503727 -2.241106 0.000000 0.000000 0.000000 2.703374 0.796246 5.544047 -13.058837 -21.373407 -2.474677 -17.840639 19.547468 52.202450 0.000000 0.000000 0.000000 7.125000 0.000000 0.000000 61.008433 77.769401 -49.578478
